<?xml version="1.0" standalone="no"?>
<!DOCTYPE svg PUBLIC "-//W3C//DTD SVG 20010904//EN"
 "http://www.w3.org/TR/2001/REC-SVG-20010904/DTD/svg10.dtd">
<svg version="1.0" xmlns="http://www.w3.org/2000/svg"
 width="32.000000pt" height="32.000000pt" viewBox="0 0 32.000000 32.000000"
 preserveAspectRatio="xMidYMid meet">

<g transform="translate(0.000000,32.000000) scale(0.100000,-0.100000)"
fill="#000000" stroke="none">
<path d="M12 308 c-17 -17 -17 -279 0 -296 17 -17 279 -17 296 0 17 17 17 279
0 296 -17 17 -279 17 -296 0z m151 -55 c-20 -7 -18 -183 1 -183 18 0 46 27 46
45 0 25 -12 45 -28 45 -13 0 -12 3 3 20 11 12 16 29 13 45 -5 22 -2 26 15 23
11 -2 25 -11 31 -21 9 -15 7 -22 -13 -38 l-23 -19 26 -21 c52 -41 18 -81 -71
-83 l-58 -1 -3 92 c-2 77 -6 92 -20 96 -9 3 8 5 38 5 30 0 49 -2 43 -5z"/>
</g>
</svg>
